<svg xmlns="http://www.w3.org/2000/svg" viewBox="0 0 640 500" role="img" aria-labelledby="title desc">
  <title id="title">Candidate skills radar chart</title>
  <desc id="desc">Static comparison of Traditional IT Manager and Strategic Head of IT skill profiles across seven capability areas.</desc>
  <rect width="640" height="500" fill="#FFFFFF" rx="24" ry="24"/>
  <g font-family="Inter, system-ui, sans-serif" fill="#1A1A1A">
    <g stroke="#000000" stroke-opacity="0.10" stroke-width="1" fill="none">
      <polygon points="300,191 322.7,203.8 328,228.9 312.1,249.1 287.9,249.1 272,228.9 277.3,203.8"/>
      <polygon points="300,162 345.4,187.6 356,237.8 324.3,278.2 275.7,278.2 244,237.8 254.6,187.6"/>
      <polygon points="300,133 368.1,171.4 384,246.7 336.4,307.4 263.6,307.4 216,246.7 231.9,171.4"/>
      <polygon points="300,104 390.9,155.2 412,255.6 348.5,336.5 251.5,336.5 188,255.6 209.1,155.2"/>
      <polygon points="300,75 413.6,139 440,264.5 360.7,365.7 239.3,365.7 160,264.5 186.4,139"/>
      <line x1="300" y1="220" x2="300" y2="75"/>
      <line x1="300" y1="220" x2="413.6" y2="139"/>
      <line x1="300" y1="220" x2="440" y2="264.5"/>
      <line x1="300" y1="220" x2="360.7" y2="365.7"/>
      <line x1="300" y1="220" x2="239.3" y2="365.7"/>
      <line x1="300" y1="220" x2="160" y2="264.5"/>
      <line x1="300" y1="220" x2="186.4" y2="139"/>
    </g>

    <g font-size="11" fill="#6B7280">
      <text x="306" y="194">2</text>
      <text x="306" y="165">4</text>
      <text x="306" y="136">6</text>
      <text x="306" y="107">8</text>
      <text x="306" y="78">10</text>
    </g>

    <polygon points="300,176.5 345.4,187.6 328,228.9 312.1,249.1 269.7,292.8 174.1,260.1 197.8,146.5" fill="#9CA3AF" fill-opacity="0.20" stroke="#9CA3AF" stroke-width="2.5"/>
    <polygon points="300,89.5 402.2,147.1 412,255.6 348.5,336.5 251.5,336.5 258.1,233.4 288.6,211.9" fill="#2E5A27" fill-opacity="0.20" stroke="#2E5A27" stroke-width="3"/>

    <g>
      <circle cx="300" cy="176.5" r="4.5" fill="#9CA3AF" stroke="#FFFFFF" stroke-width="1.5"/>
      <circle cx="345.4" cy="187.6" r="4.5" fill="#9CA3AF" stroke="#FFFFFF" stroke-width="1.5"/>
      <circle cx="328" cy="228.9" r="4.5" fill="#9CA3AF" stroke="#FFFFFF" stroke-width="1.5"/>
      <circle cx="312.1" cy="249.1" r="4.5" fill="#9CA3AF" stroke="#FFFFFF" stroke-width="1.5"/>
      <circle cx="269.7" cy="292.8" r="4.5" fill="#9CA3AF" stroke="#FFFFFF" stroke-width="1.5"/>
      <circle cx="174.1" cy="260.1" r="4.5" fill="#9CA3AF" stroke="#FFFFFF" stroke-width="1.5"/>
      <circle cx="197.8" cy="146.5" r="4.5" fill="#9CA3AF" stroke="#FFFFFF" stroke-width="1.5"/>

      <circle cx="300" cy="89.5" r="4.5" fill="#2E5A27" stroke="#FFFFFF" stroke-width="1.5"/>
      <circle cx="402.2" cy="147.1" r="4.5" fill="#2E5A27" stroke="#FFFFFF" stroke-width="1.5"/>
      <circle cx="412" cy="255.6" r="4.5" fill="#2E5A27" stroke="#FFFFFF" stroke-width="1.5"/>
      <circle cx="348.5" cy="336.5" r="4.5" fill="#2E5A27" stroke="#FFFFFF" stroke-width="1.5"/>
      <circle cx="251.5" cy="336.5" r="4.5" fill="#2E5A27" stroke="#FFFFFF" stroke-width="1.5"/>
      <circle cx="258.1" cy="233.4" r="4.5" fill="#2E5A27" stroke="#FFFFFF" stroke-width="1.5"/>
      <circle cx="288.6" cy="211.9" r="4.5" fill="#2E5A27" stroke="#FFFFFF" stroke-width="1.5"/>
    </g>

    <g font-size="13" font-weight="600">
      <text x="300" y="32" text-anchor="middle">
        <tspan x="300" dy="0">Cloud &amp; Data</tspan>
        <tspan x="300" dy="16">Architecture</tspan>
      </text>
      <text x="459" y="118" text-anchor="start">
        <tspan x="459" dy="0">Data Governance</tspan>
        <tspan x="459" dy="16">&amp; Schemas</tspan>
      </text>
      <text x="475" y="249" text-anchor="start">
        <tspan x="475" dy="0">System Decoupling</tspan>
        <tspan x="475" dy="16">(OLTP / OLAP)</tspan>
      </text>
      <text x="380" y="404" text-anchor="middle">
        <tspan x="380" dy="0">AI Pipeline</tspan>
        <tspan x="380" dy="16">Enablement</tspan>
      </text>
      <text x="220" y="404" text-anchor="middle">
        <tspan x="220" dy="0">Strategic Vendor</tspan>
        <tspan x="220" dy="16">Mgmt (MSP)</tspan>
      </text>
      <text x="103" y="249" text-anchor="end">
        <tspan x="103" dy="0">Hardware /</tspan>
        <tspan x="103" dy="16">Server Setup</tspan>
      </text>
      <text x="141" y="118" text-anchor="end">
        <tspan x="141" dy="0">Helpdesk</tspan>
        <tspan x="141" dy="16">Ticketing</tspan>
      </text>
    </g>

    <g transform="translate(170 448)" font-size="14">
      <circle cx="0" cy="0" r="7" fill="#9CA3AF"/>
      <text x="16" y="5" fill="#4B5563">Traditional IT Manager</text>
      <circle cx="205" cy="0" r="7" fill="#2E5A27"/>
      <text x="221" y="5" fill="#4B5563">Strategic Head of IT (Ideal)</text>
    </g>
  </g>
</svg>